<?xml version="1.0" encoding="utf-8"?>
<!-- Generator: Adobe Illustrator 21.0.0, SVG Export Plug-In . SVG Version: 6.00 Build 0)  -->
<svg version="1.1" id="Layer_1" xmlns="http://www.w3.org/2000/svg" xmlns:xlink="http://www.w3.org/1999/xlink" x="0px" y="0px"
	 viewBox="0 0 134.8 43" style="enable-background:new 0 0 134.8 43;" xml:space="preserve">
<style type="text/css">
	.st0{enable-background:new    ;}
	.st1{fill:#0070C0;}
	.st2{fill:#767171;}
	.st3{fill:#4774C3;}
	.st4{fill:#2E75B6;}
</style>
<g>
	<g class="st0">
		<path class="st1" d="M52.2,37.2c0,0.1,0,0.2-0.1,0.2c0,0.1-0.1,0.1-0.3,0.2c-0.1,0-0.3,0.1-0.5,0.1c-0.2,0-0.5,0-0.8,0
			c-0.3,0-0.6,0-0.8,0c-0.2,0-0.4-0.1-0.5-0.1c-0.1,0-0.2-0.1-0.3-0.2c-0.1-0.1-0.1-0.1-0.1-0.2V24h0l-4.7,13.2
			c0,0.1-0.1,0.2-0.2,0.3c-0.1,0.1-0.2,0.1-0.3,0.2c-0.1,0-0.3,0.1-0.5,0.1c-0.2,0-0.4,0-0.7,0c-0.3,0-0.5,0-0.7,0
			c-0.2,0-0.4-0.1-0.5-0.1s-0.2-0.1-0.3-0.2C41,37.4,41,37.3,41,37.2L36.4,24h0v13.2c0,0.1,0,0.2-0.1,0.2c0,0.1-0.1,0.1-0.3,0.2
			s-0.3,0.1-0.5,0.1c-0.2,0-0.4,0-0.8,0c-0.3,0-0.6,0-0.8,0c-0.2,0-0.4-0.1-0.5-0.1c-0.1,0-0.2-0.1-0.3-0.2c0-0.1-0.1-0.1-0.1-0.2
			V22.8c0-0.4,0.1-0.8,0.3-1c0.2-0.2,0.5-0.3,0.9-0.3h2.2c0.4,0,0.7,0,1,0.1c0.3,0.1,0.5,0.2,0.7,0.3c0.2,0.1,0.4,0.3,0.5,0.6
			s0.3,0.5,0.4,0.9l3.5,9.7h0l3.6-9.7c0.1-0.4,0.2-0.6,0.4-0.9c0.1-0.2,0.3-0.4,0.5-0.6s0.4-0.3,0.6-0.3s0.5-0.1,0.8-0.1h2.2
			c0.2,0,0.4,0,0.6,0.1s0.3,0.1,0.4,0.3c0.1,0.1,0.2,0.3,0.2,0.4c0.1,0.2,0.1,0.3,0.1,0.6V37.2z"/>
		<path class="st1" d="M65.1,37.3c0,0.1,0,0.2-0.1,0.3c-0.1,0.1-0.2,0.1-0.4,0.1c-0.2,0-0.4,0-0.8,0c-0.4,0-0.7,0-0.8,0
			c-0.2,0-0.3-0.1-0.4-0.1c-0.1-0.1-0.1-0.2-0.1-0.3v-0.9c-0.5,0.5-1,0.9-1.6,1.2c-0.6,0.3-1.2,0.4-2,0.4c-0.6,0-1.1-0.1-1.6-0.2
			c-0.5-0.2-0.9-0.4-1.3-0.7s-0.6-0.7-0.8-1.1c-0.2-0.5-0.3-1-0.3-1.6c0-0.7,0.1-1.2,0.4-1.7c0.3-0.5,0.6-0.9,1.1-1.2
			c0.5-0.3,1.1-0.5,1.9-0.7c0.8-0.2,1.6-0.2,2.6-0.2H62v-0.7c0-0.4,0-0.7-0.1-0.9s-0.2-0.5-0.4-0.7s-0.4-0.3-0.7-0.4s-0.6-0.1-1-0.1
			c-0.5,0-1,0.1-1.4,0.2c-0.4,0.1-0.8,0.2-1.1,0.4s-0.6,0.3-0.8,0.4c-0.2,0.1-0.4,0.2-0.5,0.2c-0.1,0-0.2,0-0.2-0.1
			c-0.1-0.1-0.1-0.1-0.2-0.3c0-0.1-0.1-0.2-0.1-0.4c0-0.2,0-0.3,0-0.5c0-0.3,0-0.5,0.1-0.6s0.1-0.3,0.2-0.4s0.3-0.3,0.6-0.4
			s0.6-0.3,1-0.4c0.4-0.1,0.8-0.2,1.3-0.3s0.9-0.1,1.4-0.1c0.9,0,1.6,0.1,2.3,0.3c0.6,0.2,1.1,0.4,1.5,0.8c0.4,0.4,0.7,0.8,0.9,1.4
			s0.3,1.2,0.3,2V37.3z M62,32.5h-1.2c-0.5,0-0.9,0-1.3,0.1s-0.7,0.2-0.9,0.3c-0.2,0.2-0.4,0.3-0.5,0.5c-0.1,0.2-0.2,0.5-0.2,0.7
			c0,0.5,0.1,0.8,0.4,1.1c0.3,0.3,0.7,0.4,1.2,0.4c0.4,0,0.9-0.1,1.2-0.3c0.4-0.2,0.8-0.6,1.1-1V32.5z"/>
		<path class="st1" d="M85.2,26c0,0.1,0,0.2,0,0.3c0,0.1-0.1,0.3-0.1,0.6l-3,10.1c0,0.1-0.1,0.3-0.2,0.3s-0.2,0.2-0.3,0.2
			c-0.1,0-0.3,0.1-0.6,0.1s-0.6,0-1,0s-0.7,0-1,0c-0.3,0-0.5-0.1-0.6-0.1c-0.1-0.1-0.3-0.1-0.3-0.2s-0.1-0.2-0.2-0.3L76,30.3l0-0.1
			l0,0.1l-1.7,6.8c0,0.1-0.1,0.3-0.1,0.3s-0.2,0.2-0.3,0.2c-0.2,0-0.4,0.1-0.6,0.1s-0.6,0-1,0c-0.4,0-0.8,0-1,0s-0.5-0.1-0.6-0.1
			c-0.1-0.1-0.3-0.1-0.3-0.2s-0.1-0.2-0.2-0.3l-3-10.1c-0.1-0.2-0.1-0.4-0.1-0.6c0-0.1,0-0.3,0-0.3c0-0.1,0-0.2,0.1-0.2
			s0.1-0.1,0.3-0.2c0.1,0,0.3-0.1,0.5-0.1s0.5,0,0.8,0c0.3,0,0.6,0,0.8,0c0.2,0,0.4,0,0.5,0.1c0.1,0,0.2,0.1,0.2,0.2
			c0,0.1,0.1,0.2,0.1,0.3l2.2,8.2l0,0.2l0-0.2l2.1-8.2c0-0.1,0.1-0.2,0.1-0.3c0.1-0.1,0.1-0.1,0.2-0.2c0.1,0,0.3-0.1,0.5-0.1
			c0.2,0,0.4,0,0.8,0c0.3,0,0.6,0,0.8,0c0.2,0,0.3,0.1,0.5,0.1c0.1,0,0.2,0.1,0.2,0.2c0,0.1,0.1,0.1,0.1,0.2l2.2,8.3l0,0.1l0-0.2
			l2.1-8.2c0-0.1,0-0.2,0.1-0.3c0.1-0.1,0.1-0.1,0.3-0.2s0.3-0.1,0.5-0.1s0.5,0,0.8,0c0.3,0,0.6,0,0.8,0s0.4,0,0.5,0.1
			c0.1,0,0.2,0.1,0.2,0.2C85.2,25.9,85.2,26,85.2,26z"/>
		<path class="st1" d="M90.6,37.6c0,0.9-0.1,1.6-0.2,2.1s-0.4,1-0.7,1.4c-0.3,0.4-0.7,0.7-1.1,0.8c-0.5,0.2-1,0.3-1.6,0.3
			c-0.3,0-0.6,0-0.9-0.1c-0.2,0-0.4-0.1-0.5-0.1c-0.1-0.1-0.2-0.1-0.2-0.2c0-0.1-0.1-0.2-0.1-0.3c0-0.1,0-0.2,0-0.3
			c0-0.1,0-0.3,0-0.5c0-0.2,0-0.4,0-0.6c0-0.2,0-0.3,0.1-0.4s0.1-0.2,0.1-0.2s0.1-0.1,0.2-0.1c0,0,0.1,0,0.3,0c0.1,0,0.3,0,0.4,0
			c0.2,0,0.4,0,0.6-0.1c0.2-0.1,0.3-0.2,0.4-0.3c0.1-0.1,0.2-0.3,0.2-0.6c0-0.2,0.1-0.6,0.1-1.1V26.1c0-0.1,0-0.2,0.1-0.2
			c0.1-0.1,0.1-0.1,0.3-0.2s0.3-0.1,0.5-0.1s0.5,0,0.8,0c0.3,0,0.6,0,0.8,0s0.4,0.1,0.5,0.1c0.1,0,0.2,0.1,0.3,0.2
			c0.1,0.1,0.1,0.1,0.1,0.2V37.6z M90.8,22.3c0,0.6-0.1,1.1-0.4,1.3C90.2,23.8,89.7,24,89,24c-0.7,0-1.2-0.1-1.4-0.4
			c-0.3-0.2-0.4-0.7-0.4-1.3c0-0.6,0.1-1.1,0.4-1.3s0.7-0.4,1.4-0.4c0.7,0,1.2,0.1,1.4,0.4S90.8,21.7,90.8,22.3z"/>
	</g>
	<g class="st0">
		<path class="st2" d="M105.4,31.6c0,1-0.1,1.8-0.4,2.6c-0.3,0.8-0.6,1.5-1.1,2c-0.5,0.6-1.2,1-1.9,1.3c-0.8,0.3-1.7,0.5-2.7,0.5
			c-1,0-1.9-0.1-2.6-0.4c-0.7-0.3-1.3-0.7-1.8-1.2s-0.8-1.2-1.1-1.9c-0.2-0.8-0.4-1.6-0.4-2.6c0-1,0.1-1.8,0.4-2.6
			c0.3-0.8,0.6-1.5,1.1-2c0.5-0.6,1.1-1,1.9-1.3c0.8-0.3,1.7-0.5,2.7-0.5c1,0,1.9,0.1,2.6,0.4c0.7,0.3,1.3,0.7,1.8,1.2
			s0.8,1.2,1.1,1.9C105.3,29.7,105.4,30.6,105.4,31.6z M102.2,31.7c0-0.6,0-1.1-0.1-1.5s-0.2-0.9-0.4-1.2c-0.2-0.3-0.5-0.6-0.8-0.8
			s-0.8-0.3-1.3-0.3c-0.5,0-0.9,0.1-1.2,0.3c-0.4,0.2-0.6,0.4-0.9,0.8c-0.2,0.3-0.4,0.7-0.5,1.2c-0.1,0.5-0.2,1-0.2,1.6
			c0,0.6,0,1.1,0.1,1.5c0.1,0.5,0.2,0.9,0.4,1.2c0.2,0.3,0.5,0.6,0.8,0.8c0.4,0.2,0.8,0.3,1.3,0.3c0.5,0,0.9-0.1,1.2-0.3
			c0.4-0.2,0.6-0.4,0.9-0.7s0.4-0.7,0.5-1.2C102.1,32.8,102.2,32.3,102.2,31.7z"/>
		<path class="st2" d="M119.2,31.6c0,1-0.1,1.8-0.4,2.6c-0.3,0.8-0.6,1.5-1.1,2c-0.5,0.6-1.2,1-1.9,1.3c-0.8,0.3-1.7,0.5-2.7,0.5
			c-1,0-1.9-0.1-2.6-0.4c-0.7-0.3-1.3-0.7-1.8-1.2s-0.8-1.2-1.1-1.9c-0.2-0.8-0.4-1.6-0.4-2.6c0-1,0.1-1.8,0.4-2.6
			c0.3-0.8,0.6-1.5,1.1-2c0.5-0.6,1.1-1,1.9-1.3c0.8-0.3,1.7-0.5,2.7-0.5c1,0,1.9,0.1,2.6,0.4c0.7,0.3,1.3,0.7,1.8,1.2
			s0.8,1.2,1.1,1.9C119.1,29.7,119.2,30.6,119.2,31.6z M116,31.7c0-0.6,0-1.1-0.1-1.5s-0.2-0.9-0.4-1.2c-0.2-0.3-0.5-0.6-0.8-0.8
			s-0.8-0.3-1.3-0.3c-0.5,0-0.9,0.1-1.2,0.3c-0.4,0.2-0.6,0.4-0.9,0.8c-0.2,0.3-0.4,0.7-0.5,1.2c-0.1,0.5-0.2,1-0.2,1.6
			c0,0.6,0,1.1,0.1,1.5c0.1,0.5,0.2,0.9,0.4,1.2c0.2,0.3,0.5,0.6,0.8,0.8c0.4,0.2,0.8,0.3,1.3,0.3c0.5,0,0.9-0.1,1.2-0.3
			c0.4-0.2,0.6-0.4,0.9-0.7s0.4-0.7,0.5-1.2C115.9,32.8,116,32.3,116,31.7z"/>
		<path class="st2" d="M132.4,37.3c0,0.1,0,0.2-0.1,0.2c0,0.1-0.1,0.1-0.2,0.2c-0.1,0-0.2,0.1-0.4,0.1s-0.4,0-0.6,0
			c-0.3,0-0.5,0-0.7,0c-0.2,0-0.3,0-0.4-0.1c-0.1,0-0.2-0.1-0.2-0.2c0-0.1-0.1-0.1-0.1-0.2V36c-0.6,0.6-1.2,1.1-1.8,1.4
			c-0.6,0.3-1.3,0.5-2.1,0.5c-0.9,0-1.6-0.2-2.2-0.5c-0.6-0.3-1.1-0.8-1.4-1.3c-0.4-0.6-0.6-1.2-0.8-2s-0.3-1.5-0.3-2.4
			c0-1,0.1-1.9,0.3-2.7c0.2-0.8,0.5-1.5,0.9-2c0.4-0.6,0.9-1,1.5-1.3c0.6-0.3,1.3-0.5,2.1-0.5c0.6,0,1.2,0.1,1.7,0.4s1,0.6,1.5,1.1
			v-6.1c0-0.1,0-0.2,0.1-0.2c0-0.1,0.1-0.1,0.3-0.2c0.1,0,0.3-0.1,0.5-0.1c0.2,0,0.5,0,0.8,0c0.3,0,0.6,0,0.8,0s0.4,0.1,0.5,0.1
			s0.2,0.1,0.3,0.2c0.1,0.1,0.1,0.1,0.1,0.2V37.3z M129.2,29.8c-0.5-0.6-0.9-1-1.3-1.3c-0.4-0.3-0.8-0.5-1.3-0.5
			c-0.4,0-0.8,0.1-1.1,0.3s-0.5,0.5-0.7,0.8c-0.2,0.3-0.3,0.7-0.4,1.1c-0.1,0.4-0.1,0.9-0.1,1.3c0,0.5,0,0.9,0.1,1.4
			c0.1,0.4,0.2,0.8,0.4,1.2c0.2,0.3,0.4,0.6,0.7,0.8c0.3,0.2,0.6,0.3,1.1,0.3c0.2,0,0.4,0,0.6-0.1s0.4-0.2,0.6-0.3
			c0.2-0.1,0.4-0.3,0.7-0.6c0.2-0.2,0.5-0.5,0.7-0.8V29.8z"/>
	</g>
	<g>
		<path class="st1" d="M25,30.1c5.1,2.7,4.7,6.9-0.9,9.4S9.9,41.8,4.8,39.1C0,36.5,0,32.5,5,30l3.8,1.7C4,32.8,3,35,6.4,36.6
			c3.4,1.6,10,1.9,14.7,0.8c4.7-1.1,5.8-3.3,2.4-4.9c-0.6-0.3-1.4-0.5-2.2-0.7L25,30.1z"/>
		<path class="st3" d="M25.5,8c-0.9-1.7-2-3-3.5-4c-3.3-2.3-6.9-2.8-10.8-2c-0.8,0-1.6,0.3-2.3,0.7C7,3.4,5.4,4.6,4.2,6.2
			c-0.9,0.9-1.8,3-2,3.8c-0.1,0.6-0.3,1.1-0.3,1.7c-0.2,2.4,0.5,4.6,1.8,6.5c1.4,2.1,2.9,4.1,4.4,6.1c1,1.4,1.9,2.7,2.9,4.1
			c0.8,1.1,1.5,2.1,2.3,3.2c0.4,0.5,0.9,0.6,1.5,0.3c0.4-0.1,0.6-0.5,0.8-0.8c2.7-3.9,5.5-7.7,8.2-11.6c0.7-1.1,1.6-2.1,2.1-3.3
			C27,13.4,27,10.7,25.5,8 M23.5,15.5c-0.7,1.5-1.8,2.8-2.8,4.2c-0.2,0.3-0.5,0.7-0.7,1.1c-0.3,0.2-0.5,0.6-0.6,0.9l0,0l-0.1,0.1
			l0,0l-0.1,0.3l0.1-0.3c0,0.1-0.1,0.1-0.1,0.2c-0.5,0.7-1,1.5-1.5,2.2c-0.3,0.4-0.7,0.8-0.9,1.2c-0.6,1-1.4,1.9-2,2.8
			c-0.4,0.6-0.6,0.3-0.9,0c-0.4-0.6-0.8-1.2-1.2-1.8c-0.5-0.8-1.1-1.6-1.7-2.3c0-0.1,0-0.1-0.1-0.1c0,0,0-0.1-0.1-0.1
			c-0.2-0.4-0.5-0.8-0.8-1.2c-1.2-1.6-2.2-3.3-3.5-4.8c-1.1-1.4-2-2.9-2.1-4.7C4.2,12,4.4,10.6,5,9.4c0.1-0.2,0.2-0.3,0.3-0.5
			c0-0.1,0-0.1,0.1-0.1c0.5-1.1,1.4-1.9,2.2-2.7c1.3-0.9,2.7-1.7,4.2-2c2.7-0.6,5.2-0.3,7.7,1c0.7,0.4,1.3,0.9,2,1.3
			c0.6,0.4,1.6,1.8,1.8,2.2C23.2,8.6,25.1,12.1,23.5,15.5"/>
		<path class="st3" d="M21.5,9c0.6,0,0.8,0.3,0.5,0.9c-0.5,1-0.9,2-1.3,3.1c-1.4,3.2-2.8,6.5-4.2,9.7c0,0.1-0.1,0.2-0.1,0.3
			c-0.1,0.3-0.3,0.6-0.6,0.6c-0.3,0-0.5-0.3-0.6-0.5c-0.8-1.5-1.6-2.9-2.3-4.4c-0.3-0.7-0.8-1.1-1.4-1.3c-1.7-0.7-3.3-1.3-5-2
			c-0.3-0.1-0.7-0.2-0.7-0.6c0-0.4,0.4-0.5,0.8-0.6c1.5-0.5,3-1,4.5-1.5c3.3-1.2,6.8-2.2,10.1-3.5C21.2,9.1,21.4,9,21.5,9
			 M20.5,10.7c-0.4,0.1-0.7,0.3-0.9,0.5c-0.8,0.8-1.7,1.5-2.5,2.3c-1.2,1.1-2.5,2.2-3.7,3.2c-0.2,0.2-0.3,0.5-0.2,0.7
			c0.5,0.9,1.1,1.9,1.6,2.8c0.3,0.5,0.4,1,0.8,1.5C17.3,18,18.9,14.4,20.5,10.7"/>
	</g>
	<path class="st4" d="M34.5,11.8c-0.4,0-0.7-0.1-0.9-0.3s-0.3-0.5-0.3-1V8.3c0-0.1,0-0.1,0.1-0.1h0.9c0.1,0,0.1,0,0.1,0.1v1.9
		c0,0.2,0,0.3,0.1,0.4c0.1,0.1,0.2,0.1,0.4,0.1H38c-0.2-0.3-0.2-0.7-0.2-1.1c0-0.4,0.1-0.8,0.2-1c0.1-0.3,0.3-0.5,0.5-0.7
		s0.4-0.3,0.7-0.4c0.2-0.1,0.5-0.1,0.8-0.1s0.6,0,0.8,0.1c0.3,0.1,0.5,0.2,0.7,0.4c0.2,0.2,0.3,0.4,0.4,0.7S42,9.3,42,9.7
		s-0.1,0.7-0.2,1c-0.1,0.3-0.2,0.5-0.4,0.7s-0.4,0.3-0.7,0.4c-0.3,0.1-0.5,0.1-0.8,0.1L34.5,11.8L34.5,11.8z M40.9,9.6
		c0-0.8-0.3-1.2-0.9-1.2c-0.3,0-0.5,0.1-0.7,0.3C39.1,8.9,39,9.2,39,9.6c0,0.4,0.1,0.7,0.2,0.9c0.2,0.2,0.4,0.3,0.7,0.3
		s0.6-0.1,0.7-0.3C40.8,10.4,40.9,10.1,40.9,9.6L40.9,9.6z M39.5,6.6C39.4,6.6,39.4,6.6,39.5,6.6l-0.1-1c0-0.1,0-0.1,0.1-0.1h1
		c0.1,0,0.1,0,0.1,0.1v0.9c0,0.1,0,0.1-0.1,0.1H39.5z M44.3,11.7c0,0.1,0,0.1-0.1,0.1h-0.9c-0.1,0-0.1,0-0.1-0.1V5
		c0-0.1,0-0.1,0.1-0.1h0.9c0.1,0,0.1,0,0.1,0.1V11.7z M46.1,7.7C46.1,7.6,46.1,7.6,46.1,7.7l1-0.1c0.1,0,0.1,0,0.1,0.1v2.4
		c0,0.2,0.1,0.4,0.2,0.5c0.2,0.1,0.4,0.2,0.6,0.2h0.2c0.1,0,0.2,0,0.3,0.1s0.1,0.2,0.1,0.4s0,0.3-0.1,0.4c-0.1,0.1-0.2,0.1-0.3,0.1
		c-0.2,0-0.4,0-0.6-0.1c-0.2,0-0.3-0.1-0.4-0.3v0.2c0,0.4,0,0.7-0.1,0.9c-0.1,0.3-0.2,0.5-0.3,0.7s-0.3,0.3-0.5,0.4
		c-0.2,0.1-0.5,0.1-0.8,0.1h-0.4c-0.1,0-0.1,0-0.1-0.1v-0.8c0-0.1,0-0.1,0.1-0.1h0.2c0.2,0,0.3,0,0.5-0.1c0.1-0.1,0.2-0.2,0.2-0.3
		c0.1-0.1,0.1-0.3,0.1-0.5s0-0.4,0-0.6V7.7z M50.3,8c0.3-0.2,0.7-0.3,1-0.4c0.4-0.1,0.8-0.2,1.2-0.2s0.8,0.1,1.1,0.2
		s0.6,0.3,0.8,0.5c0.2,0.2,0.3,0.5,0.4,0.8C55,9.1,55,9.5,55,9.8c0,0.1,0,0.1,0,0.2c0,0.1,0,0.1,0,0.1c0,0.2,0.1,0.4,0.2,0.5
		c0.1,0.1,0.3,0.2,0.6,0.2H56c0.1,0,0.2,0,0.3,0.1s0.1,0.2,0.1,0.4s0,0.3-0.1,0.4c-0.1,0.1-0.2,0.1-0.3,0.1c-0.3,0-0.5,0-0.8-0.1
		c-0.2-0.1-0.4-0.3-0.5-0.5c-0.1,0.3-0.3,0.4-0.6,0.5s-0.6,0.1-1.1,0.1h-2c-0.1,0-0.2,0-0.3,0s-0.2,0-0.3,0s-0.2,0-0.3-0.1
		c-0.1,0-0.2-0.1-0.2-0.1c-0.1,0.1-0.2,0.1-0.4,0.1c-0.1,0-0.3,0-0.5,0h-0.8c-0.1,0-0.2,0-0.3-0.1s-0.1-0.2-0.1-0.4s0-0.4,0.1-0.4
		c0.1-0.1,0.2-0.1,0.3-0.1h0.5c0.1,0,0.2,0,0.3-0.1s0.1-0.1,0.1-0.2c0-0.1,0-0.2,0.1-0.3c0-0.1,0-0.3,0-0.4v-2c0-0.1,0-0.1,0.1-0.1
		h0.9c0.1,0,0.1,0,0.1,0.1V8z M52.4,8.4c-0.4,0-0.7,0.1-1.1,0.2c-0.4,0.1-0.7,0.2-1,0.4v1.4c0,0.1,0,0.2,0,0.2c0,0.1,0,0.1,0,0.2
		h2.2c0.3,0,0.5,0,0.7,0s0.3,0,0.4-0.1c0.1-0.1,0.2-0.2,0.2-0.3s0.1-0.3,0.1-0.6c0-0.2,0-0.4-0.1-0.6c0-0.2-0.1-0.3-0.2-0.4
		c-0.1-0.1-0.3-0.2-0.4-0.3C52.9,8.5,52.7,8.4,52.4,8.4z M56.1,11.8c-0.1,0-0.2,0-0.3-0.1c-0.1,0-0.1-0.1-0.1-0.3s0-0.3,0.1-0.5
		c0.1-0.1,0.2-0.2,0.3-0.2h0.5c0.2,0,0.3,0,0.4-0.1c0.1-0.1,0.1-0.2,0.1-0.4V7.7c0-0.1,0-0.1,0.1-0.1h0.9c0.1,0,0.1,0,0.1,0.1v2.8
		c0,0.4-0.1,0.8-0.3,1s-0.5,0.3-0.9,0.3H56.1z M57.1,6.6C57,6.6,57,6.6,57.1,6.6l-0.1-1c0-0.1,0-0.1,0.1-0.1h1c0.1,0,0.1,0,0.1,0.1
		v0.9c0,0.1,0,0.1-0.1,0.1H57.1z M62,10.8h1.1c0.2,0,0.3,0,0.4-0.1c0.1-0.1,0.1-0.2,0.1-0.4V5c0-0.1,0-0.1,0.1-0.1h0.9
		c0.1,0,0.1,0,0.1,0.1v5.5c0,0.4-0.1,0.8-0.3,1c-0.2,0.2-0.5,0.3-0.9,0.3h-4.4c-0.1,0-0.1,0-0.1-0.1v-0.8c0-0.1,0-0.1,0.1-0.1h1.8
		V6.4c0-0.1,0-0.1,0.1-0.1h0.9c0.1,0,0.1,0,0.1,0.1L62,10.8L62,10.8z M67.1,11.7c0,0.1,0,0.1-0.1,0.1h-0.9c-0.1,0-0.1,0-0.1-0.1V5
		c0-0.1,0-0.1,0.1-0.1H67c0.1,0,0.1,0,0.1,0.1V11.7z"/>
	<path class="st4" d="M71.5,11.8c-0.3,0-0.6,0-0.8-0.1c-0.2-0.1-0.5-0.2-0.6-0.4c-0.2-0.2-0.3-0.4-0.4-0.6c-0.1-0.3-0.1-0.6-0.1-1
		s0.1-0.8,0.2-1c0.1-0.3,0.3-0.5,0.5-0.7s0.4-0.3,0.7-0.4c0.2-0.1,0.5-0.1,0.8-0.1s0.6,0,0.8,0.1c0.3,0.1,0.5,0.2,0.6,0.4
		c0.2,0.2,0.3,0.4,0.4,0.7s0.2,0.6,0.2,1V12c0,0.6-0.2,1.1-0.5,1.4c-0.3,0.3-0.8,0.4-1.4,0.4h-1.4c-0.1,0-0.1,0-0.1-0.1v-0.8
		c0-0.1,0-0.1,0.1-0.1h1.2c0.1,0,0.3,0,0.4,0s0.2-0.1,0.3-0.1c0.1-0.1,0.1-0.2,0.2-0.3c0-0.1,0.1-0.3,0.1-0.5L71.5,11.8L71.5,11.8z
		 M71.6,8.4c-0.3,0-0.5,0.1-0.7,0.3s-0.3,0.5-0.3,0.9s0.1,0.7,0.3,0.9c0.2,0.2,0.4,0.2,0.7,0.2h0.9V9.6c0-0.4-0.1-0.7-0.2-0.9
		C72.1,8.5,71.9,8.4,71.6,8.4z"/>
	<path class="st4" d="M76.8,13.8c-0.1,0-0.1,0-0.1-0.1v-0.8c0-0.1,0-0.1,0.1-0.1H77c0.3,0,0.5-0.1,0.6-0.2c0.1-0.1,0.2-0.4,0.2-0.6
		V7.7c0-0.1,0-0.1,0.1-0.1h0.9c0.1,0,0.1,0,0.1,0.1V12c0,1.2-0.6,1.8-1.8,1.8H76.8z M81,13.8c-0.1,0-0.1,0-0.1-0.1v-0.8
		c0-0.1,0-0.1,0.1-0.1h1.2c0.2,0,0.3,0,0.4,0s0.2-0.1,0.3-0.2c0.1-0.1,0.1-0.2,0.2-0.3c0-0.1,0.1-0.3,0.1-0.5h-1
		c-0.3,0-0.6,0-0.8-0.1c-0.2-0.1-0.5-0.2-0.6-0.4c-0.2-0.2-0.3-0.4-0.4-0.6c-0.1-0.3-0.1-0.6-0.1-1s0.1-0.8,0.2-1
		C80.6,8.4,80.8,8.2,81,8s0.4-0.3,0.7-0.4c0.2-0.1,0.5-0.1,0.8-0.1s0.6,0,0.8,0.1c0.3,0.1,0.5,0.2,0.6,0.4c0.2,0.2,0.3,0.4,0.4,0.7
		s0.2,0.6,0.2,1v1.1h0.7c0.1,0,0.2,0,0.3,0.1c0.1,0.1,0.1,0.2,0.1,0.4s0,0.4-0.1,0.4c-0.1,0.1-0.2,0.1-0.3,0.1h-0.7V12
		c0,0.6-0.2,1.1-0.5,1.4c-0.3,0.3-0.8,0.4-1.4,0.4C82.6,13.8,81,13.8,81,13.8z M82.1,8.4c-0.3,0-0.5,0.1-0.7,0.3s-0.3,0.5-0.3,0.9
		s0.1,0.7,0.3,0.9c0.2,0.2,0.4,0.2,0.7,0.2H83V9.6c0-0.4-0.1-0.7-0.2-0.9C82.7,8.5,82.5,8.4,82.1,8.4z M87,8c0.3-0.2,0.7-0.3,1-0.4
		c0.4-0.1,0.8-0.2,1.2-0.2c0.4,0,0.8,0.1,1.1,0.2c0.3,0.1,0.6,0.3,0.8,0.5c0.2,0.2,0.3,0.5,0.4,0.8s0.1,0.6,0.1,1c0,0.1,0,0.1,0,0.2
		c0,0.1,0,0.1,0,0.1c0,0.2,0.1,0.4,0.2,0.5s0.3,0.2,0.6,0.2h0.2c0.1,0,0.2,0,0.3,0.1c0.1,0.1,0.1,0.2,0.1,0.4s0,0.3-0.1,0.4
		c-0.1,0.1-0.2,0.1-0.3,0.1c-0.3,0-0.5,0-0.8-0.1c-0.2-0.1-0.4-0.3-0.5-0.5c-0.1,0.3-0.3,0.4-0.6,0.5c-0.3,0.1-0.6,0.1-1.1,0.1h-2
		c-0.1,0-0.2,0-0.3,0c-0.1,0-0.2,0-0.3,0c-0.1,0-0.2,0-0.3-0.1c-0.1,0-0.2-0.1-0.2-0.1c-0.1,0.1-0.2,0.1-0.4,0.1c-0.1,0-0.3,0-0.5,0
		h-0.8c-0.1,0-0.2,0-0.3-0.1c-0.1-0.1-0.1-0.2-0.1-0.4s0-0.4,0.1-0.4c0.1-0.1,0.2-0.1,0.3-0.1h0.5c0.1,0,0.2,0,0.3-0.1
		c0.1-0.1,0.1-0.1,0.1-0.2c0-0.1,0-0.2,0.1-0.3c0-0.1,0-0.3,0-0.4V7.7c0-0.1,0-0.1,0.1-0.1h0.9c0.1,0,0.1,0,0.1,0.1V8H87z M89.1,8.4
		c-0.4,0-0.7,0.1-1.1,0.2c-0.4,0.1-0.7,0.2-1,0.4v1.4c0,0.1,0,0.2,0,0.2c0,0.1,0,0.1,0,0.2h2.2c0.3,0,0.5,0,0.7,0s0.3,0,0.4-0.1
		s0.2-0.2,0.2-0.3s0.1-0.3,0.1-0.6c0-0.2,0-0.4-0.1-0.6c0-0.2-0.1-0.3-0.2-0.4c-0.1-0.1-0.3-0.2-0.4-0.3C89.6,8.5,89.4,8.4,89.1,8.4
		z M88.7,6.6C88.6,6.6,88.6,6.6,88.7,6.6l-0.1-1c0-0.1,0-0.1,0.1-0.1h1c0.1,0,0.1,0,0.1,0.1v0.9c0,0.1,0,0.1-0.1,0.1H88.7z
		 M93.2,8.4c-0.1-0.1-0.1-0.1,0-0.1c0.2-0.2,0.5-0.4,0.7-0.6c0.3-0.2,0.6-0.2,1.1-0.2c0.4,0,0.8,0.1,1.1,0.2
		c0.3,0.1,0.5,0.3,0.7,0.6C97,8.4,97.1,8.7,97.2,9s0.1,0.6,0.1,1v0.1v0.1c0,0.2,0.1,0.3,0.2,0.4c0.1,0.1,0.3,0.2,0.6,0.2h0.2
		c0.1,0,0.2,0,0.3,0.1c0.1,0.1,0.1,0.2,0.1,0.4s0,0.3-0.1,0.4c-0.1,0.1-0.2,0.1-0.3,0.1c-0.3,0-0.5,0-0.7-0.1s-0.4-0.2-0.5-0.5
		c-0.1,0.2-0.3,0.4-0.5,0.5s-0.5,0.1-0.8,0.1h-3.1c-0.1,0-0.2,0-0.3-0.1c-0.1-0.1-0.1-0.2-0.1-0.4s0-0.3,0.1-0.4
		c0.1-0.1,0.2-0.1,0.3-0.1h2.7c0.2,0,0.3,0,0.4,0s0.2-0.1,0.3-0.1c0.1-0.1,0.1-0.2,0.1-0.3s0-0.2,0-0.4s0-0.4-0.1-0.6
		C96,9.1,96,9,95.9,8.9s-0.2-0.2-0.4-0.3c-0.2-0.1-0.3-0.1-0.6-0.1c-0.2,0-0.4,0-0.6,0.1S94,8.8,93.8,9c0,0-0.1,0.1-0.1,0L93.2,8.4
		L93.2,8.4z M98.3,11.8c-0.1,0-0.2,0-0.3-0.1c-0.1-0.1-0.1-0.2-0.1-0.4s0-0.3,0.1-0.4c0.1-0.1,0.2-0.1,0.3-0.1h0.5
		c0.2,0,0.3,0,0.4-0.1s0.1-0.2,0.1-0.4V5c0-0.1,0-0.1,0.1-0.1h0.9c0.1,0,0.1,0,0.1,0.1v5.5c0,0.4-0.1,0.8-0.3,1
		c-0.2,0.2-0.5,0.3-0.9,0.3H98.3z M99,11.8c-0.1,0-0.2,0-0.3-0.1c-0.1-0.1-0.1-0.2-0.1-0.4s0-0.3,0.1-0.4c0.1-0.1,0.2-0.1,0.3-0.1
		h2.5c0.2,0,0.3,0,0.4-0.1s0.1-0.2,0.1-0.4V5c0-0.1,0-0.1,0.1-0.1h0.9c0.1,0,0.1,0,0.1,0.1v5.5c0,0.4-0.1,0.8-0.3,1
		c-0.2,0.2-0.5,0.3-0.9,0.3H99z M110.3,10.1c0,0.3,0,0.6-0.1,0.8s-0.1,0.4-0.3,0.5c-0.1,0.1-0.3,0.2-0.5,0.3s-0.4,0.1-0.7,0.1h-2.3
		c-0.1,0-0.1,0-0.1-0.1v-0.8c0-0.1,0-0.1,0.1-0.1h1.9c0.2,0,0.3,0,0.4,0s0.2-0.1,0.2-0.1c0.1-0.1,0.1-0.1,0.1-0.2c0-0.1,0-0.2,0-0.4
		V9.3c0-0.6-0.3-0.9-1-0.9h-1.2c-0.1,0-0.1,0-0.1-0.1V7.5c0-0.1,0-0.1,0.1-0.1h1.6c0.5,0,1,0.1,1.3,0.4s0.5,0.7,0.5,1.4L110.3,10.1
		L110.3,10.1z M112.2,13.8c-0.1,0-0.1,0-0.1-0.1v-0.8c0-0.1,0-0.1,0.1-0.1h1.2c0.2,0,0.3,0,0.4,0s0.2-0.1,0.3-0.2
		c0.1-0.1,0.1-0.2,0.2-0.3c0-0.1,0.1-0.3,0.1-0.5h-1c-0.3,0-0.6,0-0.8-0.1c-0.2-0.1-0.5-0.2-0.6-0.4c-0.2-0.2-0.3-0.4-0.4-0.6
		c-0.1-0.3-0.1-0.6-0.1-1s0.1-0.8,0.2-1c0.1-0.3,0.3-0.5,0.5-0.7s0.4-0.3,0.7-0.4c0.2-0.1,0.5-0.1,0.8-0.1s0.6,0,0.8,0.1
		c0.3,0.1,0.5,0.2,0.6,0.4c0.2,0.2,0.3,0.4,0.4,0.7s0.2,0.6,0.2,1v1.1h0.7c0.1,0,0.2,0,0.3,0.1c0.1,0.1,0.1,0.2,0.1,0.4
		s0,0.4-0.1,0.4c-0.1,0.1-0.2,0.1-0.3,0.1h-0.7V12c0,0.6-0.2,1.1-0.5,1.4c-0.3,0.3-0.8,0.4-1.4,0.4
		C113.8,13.8,112.2,13.8,112.2,13.8z M113.4,8.4c-0.3,0-0.5,0.1-0.7,0.3s-0.3,0.5-0.3,0.9s0.1,0.7,0.3,0.9s0.4,0.2,0.7,0.2h0.9V9.6
		c0-0.4-0.1-0.7-0.2-0.9C113.9,8.5,113.7,8.4,113.4,8.4z M116.1,11.8c-0.1,0-0.2,0-0.3-0.1c-0.1-0.1-0.1-0.2-0.1-0.4s0-0.3,0.1-0.4
		c0.1-0.1,0.2-0.1,0.3-0.1h2.7c0.2,0,0.3,0,0.4,0s0.2-0.1,0.3-0.1c0.1-0.1,0.1-0.2,0.1-0.3s0-0.2,0-0.4s0-0.4-0.1-0.6
		c0-0.2-0.1-0.3-0.2-0.5c-0.1-0.1-0.2-0.2-0.4-0.3c-0.2-0.1-0.3-0.1-0.6-0.1c-0.2,0-0.4,0-0.6,0.1s-0.3,0.2-0.5,0.4
		c0,0-0.1,0.1-0.1,0l-0.5-0.5c-0.1-0.1-0.1-0.1,0-0.1c0.2-0.2,0.5-0.4,0.7-0.6c0.3-0.2,0.6-0.2,1.1-0.2c0.4,0,0.8,0.1,1.1,0.2
		c0.3,0.1,0.5,0.3,0.7,0.6c0.2,0.2,0.3,0.5,0.4,0.8s0.1,0.6,0.1,1s0,0.7-0.1,0.9s-0.2,0.4-0.3,0.6c-0.1,0.1-0.3,0.2-0.5,0.3
		s-0.4,0.1-0.7,0.1h-3V11.8z M118.1,13.7c-0.1,0-0.1,0-0.1-0.1v-0.9c0-0.1,0-0.1,0.1-0.1h1c0.1,0,0.1,0,0.1,0.1v0.9
		c0,0.1,0,0.1-0.1,0.1H118.1z M122.7,13.8c-0.1,0-0.1,0-0.1-0.1v-0.8c0-0.1,0-0.1,0.1-0.1h1.2c0.2,0,0.3,0,0.4,0s0.2-0.1,0.3-0.2
		c0.1-0.1,0.1-0.2,0.2-0.3c0-0.1,0.1-0.3,0.1-0.5h-1c-0.3,0-0.6,0-0.8-0.1c-0.2-0.1-0.5-0.2-0.6-0.4c-0.2-0.2-0.3-0.4-0.4-0.6
		c-0.1-0.3-0.1-0.6-0.1-1s0.1-0.8,0.2-1c0.1-0.3,0.3-0.5,0.5-0.7s0.4-0.3,0.7-0.4c0.2-0.1,0.5-0.1,0.8-0.1s0.6,0,0.8,0.1
		c0.3,0.1,0.5,0.2,0.6,0.4c0.2,0.2,0.3,0.4,0.4,0.7s0.2,0.6,0.2,1v1.1h0.7c0.1,0,0.2,0,0.3,0.1c0.1,0.1,0.1,0.2,0.1,0.4
		s0,0.4-0.1,0.4c-0.1,0.1-0.2,0.1-0.3,0.1h-0.7V12c0,0.6-0.2,1.1-0.5,1.4c-0.3,0.3-0.8,0.4-1.4,0.4
		C124.3,13.8,122.7,13.8,122.7,13.8z M123.9,8.4c-0.3,0-0.5,0.1-0.7,0.3s-0.3,0.5-0.3,0.9s0.1,0.7,0.3,0.9s0.4,0.2,0.7,0.2h0.9V9.6
		c0-0.4-0.1-0.7-0.2-0.9C124.4,8.5,124.2,8.4,123.9,8.4z M129.7,11.8c-0.3,0-0.6,0-0.9-0.1c-0.3-0.1-0.5-0.2-0.7-0.5
		c-0.1,0.1-0.1,0.2-0.2,0.3c-0.1,0.1-0.2,0.1-0.3,0.2c-0.1,0-0.2,0.1-0.3,0.1c-0.1,0-0.2,0-0.3,0h-0.4c-0.1,0-0.2,0-0.3-0.1
		c-0.1-0.1-0.1-0.2-0.1-0.4s0-0.3,0.1-0.4c0.1-0.1,0.2-0.1,0.3-0.1h0.4c0.1,0,0.1,0,0.2,0s0.1-0.1,0.2-0.2c0.1-0.1,0.1-0.2,0.2-0.3
		c0-0.1,0.1-0.3,0.1-0.4c0-0.1,0-0.1,0-0.1s0-0.1,0-0.2c0-0.4,0.1-0.7,0.2-1s0.2-0.5,0.4-0.7s0.4-0.3,0.6-0.4
		c0.2-0.1,0.5-0.1,0.8-0.1s0.6,0,0.8,0.1c0.3,0.1,0.5,0.2,0.7,0.4c0.2,0.2,0.3,0.4,0.4,0.7c0.1,0.3,0.2,0.6,0.2,1s-0.1,0.7-0.2,1
		c-0.1,0.3-0.2,0.5-0.4,0.7s-0.4,0.3-0.7,0.4C130.3,11.8,130,11.8,129.7,11.8z M130.6,9.6c0-0.8-0.3-1.2-0.9-1.2
		c-0.3,0-0.6,0.1-0.7,0.3c-0.2,0.2-0.2,0.5-0.2,0.9s0.1,0.7,0.2,0.9c0.2,0.2,0.4,0.3,0.7,0.3s0.6-0.1,0.7-0.3
		C130.6,10.4,130.6,10.1,130.6,9.6L130.6,9.6z"/>
	<rect x="33.4" y="16.3" class="st4" width="99.3" height="2.3"/>
</g>
</svg>
