<?xml version="1.0" encoding="utf-8"?>
<!-- Generator: Adobe Illustrator 21.0.0, SVG Export Plug-In . SVG Version: 6.00 Build 0)  -->
<svg version="1.1" id="Layer_1" xmlns="http://www.w3.org/2000/svg" xmlns:xlink="http://www.w3.org/1999/xlink" x="0px" y="0px"
	 viewBox="0 0 134.8 43" style="enable-background:new 0 0 134.8 43;" xml:space="preserve">
<style type="text/css">
	.st0{enable-background:new    ;}
	.st1{fill:#FFFFFF;}
</style>
<g>
	<g class="st0">
		<path class="st1" d="M53.4,36.5c0,0.1,0,0.2-0.1,0.2s-0.1,0.1-0.2,0.2C53,37,52.8,37,52.7,37c-0.2,0-0.4,0-0.7,0
			c-0.3,0-0.5,0-0.7,0c-0.2,0-0.3-0.1-0.5-0.1c-0.1,0-0.2-0.1-0.2-0.2c0-0.1-0.1-0.1-0.1-0.2V23.7h0l-4.6,12.8
			c0,0.1-0.1,0.2-0.2,0.3c-0.1,0.1-0.2,0.1-0.3,0.2c-0.1,0-0.3,0.1-0.5,0.1c-0.2,0-0.4,0-0.7,0c-0.3,0-0.5,0-0.7,0
			c-0.2,0-0.4-0.1-0.5-0.1c-0.1,0-0.2-0.1-0.3-0.2c-0.1-0.1-0.1-0.1-0.1-0.2l-4.4-12.8h0v12.8c0,0.1,0,0.2-0.1,0.2
			c0,0.1-0.1,0.1-0.2,0.2c-0.1,0-0.3,0.1-0.5,0.1s-0.4,0-0.7,0c-0.3,0-0.5,0-0.7,0c-0.2,0-0.4-0.1-0.5-0.1c-0.1,0-0.2-0.1-0.2-0.2
			c0-0.1-0.1-0.1-0.1-0.2v-14c0-0.4,0.1-0.7,0.3-0.9s0.5-0.3,0.9-0.3h2.1c0.4,0,0.7,0,1,0.1c0.3,0.1,0.5,0.2,0.7,0.3
			c0.2,0.1,0.4,0.3,0.5,0.6c0.1,0.2,0.2,0.5,0.3,0.9l3.4,9.4h0l3.5-9.4c0.1-0.3,0.2-0.6,0.3-0.9c0.1-0.2,0.3-0.4,0.4-0.6
			c0.2-0.1,0.4-0.2,0.6-0.3c0.2-0.1,0.5-0.1,0.8-0.1h2.2c0.2,0,0.4,0,0.6,0.1c0.2,0.1,0.3,0.1,0.4,0.2s0.2,0.2,0.2,0.4
			c0.1,0.2,0.1,0.3,0.1,0.5V36.5z"/>
		<path class="st1" d="M65.9,36.6c0,0.1,0,0.2-0.1,0.3S65.6,37,65.4,37s-0.4,0-0.8,0c-0.4,0-0.6,0-0.8,0s-0.3-0.1-0.4-0.1
			s-0.1-0.2-0.1-0.3v-0.9c-0.4,0.5-1,0.9-1.5,1.1c-0.6,0.3-1.2,0.4-1.9,0.4c-0.6,0-1.1-0.1-1.6-0.2c-0.5-0.1-0.9-0.4-1.3-0.7
			s-0.6-0.7-0.8-1.1c-0.2-0.4-0.3-0.9-0.3-1.5c0-0.6,0.1-1.2,0.4-1.6c0.2-0.5,0.6-0.9,1.1-1.2c0.5-0.3,1.1-0.5,1.8-0.7
			s1.6-0.2,2.5-0.2h1.1v-0.7c0-0.3,0-0.6-0.1-0.9c-0.1-0.3-0.2-0.5-0.3-0.6c-0.2-0.2-0.4-0.3-0.6-0.4c-0.3-0.1-0.6-0.1-1-0.1
			c-0.5,0-1,0.1-1.4,0.2c-0.4,0.1-0.8,0.2-1.1,0.4s-0.6,0.3-0.8,0.4c-0.2,0.1-0.4,0.2-0.5,0.2c-0.1,0-0.2,0-0.2-0.1
			c-0.1-0.1-0.1-0.1-0.2-0.2c0-0.1-0.1-0.2-0.1-0.4s0-0.3,0-0.5c0-0.3,0-0.5,0.1-0.6c0-0.1,0.1-0.3,0.2-0.4c0.1-0.1,0.3-0.2,0.6-0.4
			c0.3-0.1,0.6-0.3,1-0.4c0.4-0.1,0.8-0.2,1.2-0.3c0.5-0.1,0.9-0.1,1.4-0.1c0.9,0,1.6,0.1,2.2,0.3s1.1,0.4,1.5,0.8s0.7,0.8,0.9,1.3
			s0.3,1.2,0.3,1.9V36.6z M62.9,32h-1.2c-0.5,0-0.9,0-1.3,0.1c-0.3,0.1-0.6,0.2-0.9,0.3c-0.2,0.1-0.4,0.3-0.5,0.5
			C59,33.1,59,33.4,59,33.6c0,0.5,0.1,0.8,0.4,1.1c0.3,0.3,0.7,0.4,1.2,0.4c0.4,0,0.8-0.1,1.2-0.3s0.7-0.5,1.1-1V32z"/>
		<path class="st1" d="M85.4,25.7c0,0.1,0,0.2,0,0.3c0,0.1-0.1,0.3-0.1,0.6l-2.9,9.8c0,0.1-0.1,0.3-0.2,0.3
			c-0.1,0.1-0.2,0.2-0.3,0.2S81.5,37,81.3,37c-0.2,0-0.6,0-1,0c-0.4,0-0.7,0-1,0c-0.3,0-0.4-0.1-0.6-0.1s-0.2-0.1-0.3-0.2
			c-0.1-0.1-0.1-0.2-0.1-0.3l-1.8-6.6l0-0.1l0,0.1l-1.7,6.6c0,0.1-0.1,0.3-0.1,0.3s-0.2,0.2-0.3,0.2C74.2,37,74,37,73.7,37
			c-0.3,0-0.6,0-1,0c-0.4,0-0.7,0-1,0c-0.2,0-0.4-0.1-0.6-0.1s-0.2-0.1-0.3-0.2c-0.1-0.1-0.1-0.2-0.1-0.3l-2.9-9.8
			c-0.1-0.2-0.1-0.4-0.1-0.6c0-0.1,0-0.2,0-0.3c0-0.1,0-0.2,0.1-0.2c0-0.1,0.1-0.1,0.2-0.1s0.3-0.1,0.5-0.1c0.2,0,0.4,0,0.7,0
			c0.3,0,0.6,0,0.8,0c0.2,0,0.4,0,0.5,0.1c0.1,0,0.2,0.1,0.2,0.2c0,0.1,0.1,0.2,0.1,0.3l2.2,8l0,0.1l0-0.1l2-8
			c0-0.1,0.1-0.2,0.1-0.3c0.1-0.1,0.1-0.1,0.2-0.2c0.1,0,0.3-0.1,0.4-0.1c0.2,0,0.4,0,0.7,0c0.3,0,0.5,0,0.7,0c0.2,0,0.3,0,0.4,0.1
			c0.1,0,0.2,0.1,0.2,0.1c0,0.1,0.1,0.1,0.1,0.2l2.2,8l0,0.1l0-0.1l2.1-8c0-0.1,0-0.2,0.1-0.3c0-0.1,0.1-0.1,0.2-0.2
			c0.1,0,0.3-0.1,0.5-0.1c0.2,0,0.4,0,0.7,0s0.5,0,0.7,0c0.2,0,0.3,0,0.5,0.1s0.2,0.1,0.2,0.1C85.4,25.5,85.4,25.6,85.4,25.7z"/>
		<path class="st1" d="M90.6,36.9c0,0.9-0.1,1.5-0.2,2.1c-0.1,0.5-0.4,1-0.7,1.3c-0.3,0.4-0.7,0.6-1.1,0.8c-0.4,0.2-1,0.3-1.6,0.3
			c-0.3,0-0.6,0-0.9-0.1c-0.2,0-0.4-0.1-0.5-0.1c-0.1,0-0.2-0.1-0.2-0.2c0-0.1-0.1-0.2-0.1-0.3c0-0.1,0-0.2,0-0.3c0-0.1,0-0.3,0-0.5
			c0-0.2,0-0.4,0-0.6c0-0.2,0-0.3,0.1-0.4s0.1-0.2,0.1-0.2c0,0,0.1-0.1,0.2-0.1c0,0,0.1,0,0.2,0c0.1,0,0.3,0,0.4,0
			c0.2,0,0.4,0,0.5-0.1c0.2-0.1,0.3-0.2,0.4-0.3c0.1-0.1,0.2-0.3,0.2-0.5c0-0.2,0.1-0.6,0.1-1.1V25.7c0-0.1,0-0.2,0.1-0.2
			c0-0.1,0.1-0.1,0.2-0.2c0.1,0,0.3-0.1,0.5-0.1c0.2,0,0.4,0,0.7,0s0.5,0,0.7,0c0.2,0,0.4,0.1,0.5,0.1c0.1,0,0.2,0.1,0.2,0.2
			c0,0.1,0.1,0.1,0.1,0.2V36.9z M90.9,22c0,0.6-0.1,1-0.4,1.3c-0.2,0.2-0.7,0.4-1.4,0.4c-0.7,0-1.1-0.1-1.4-0.3
			c-0.2-0.2-0.4-0.6-0.4-1.2c0-0.6,0.1-1,0.4-1.3s0.7-0.4,1.4-0.4c0.7,0,1.2,0.1,1.4,0.3C90.7,21,90.9,21.4,90.9,22z"/>
	</g>
	<g class="st0">
		<path class="st1" d="M105,31c0,0.9-0.1,1.8-0.4,2.5s-0.6,1.4-1.1,2c-0.5,0.6-1.1,1-1.9,1.3c-0.7,0.3-1.6,0.4-2.6,0.4
			c-1,0-1.8-0.1-2.5-0.4c-0.7-0.3-1.3-0.7-1.8-1.2c-0.5-0.5-0.8-1.1-1-1.9c-0.2-0.7-0.3-1.6-0.3-2.6c0-0.9,0.1-1.8,0.4-2.5
			c0.2-0.8,0.6-1.4,1.1-2c0.5-0.5,1.1-1,1.9-1.3c0.7-0.3,1.6-0.5,2.6-0.5c1,0,1.8,0.1,2.5,0.4c0.7,0.3,1.3,0.7,1.8,1.2
			c0.5,0.5,0.8,1.1,1,1.9C104.9,29.2,105,30.1,105,31z M101.8,31.1c0-0.5,0-1-0.1-1.5c-0.1-0.4-0.2-0.8-0.4-1.2
			c-0.2-0.3-0.5-0.6-0.8-0.8c-0.3-0.2-0.8-0.3-1.3-0.3c-0.5,0-0.9,0.1-1.2,0.3s-0.6,0.4-0.8,0.7s-0.4,0.7-0.5,1.2
			c-0.1,0.5-0.2,1-0.2,1.5c0,0.5,0,1,0.1,1.5c0.1,0.5,0.2,0.8,0.4,1.2c0.2,0.3,0.5,0.6,0.8,0.8c0.3,0.2,0.8,0.3,1.3,0.3
			c0.5,0,0.9-0.1,1.2-0.3c0.3-0.2,0.6-0.4,0.8-0.7c0.2-0.3,0.4-0.7,0.5-1.1C101.8,32.2,101.8,31.7,101.8,31.1z"/>
		<path class="st1" d="M118.4,31c0,0.9-0.1,1.8-0.4,2.5s-0.6,1.4-1.1,2c-0.5,0.6-1.1,1-1.9,1.3c-0.7,0.3-1.6,0.4-2.6,0.4
			c-1,0-1.8-0.1-2.5-0.4c-0.7-0.3-1.3-0.7-1.8-1.2c-0.5-0.5-0.8-1.1-1-1.9c-0.2-0.7-0.3-1.6-0.3-2.6c0-0.9,0.1-1.8,0.4-2.5
			c0.2-0.8,0.6-1.4,1.1-2c0.5-0.5,1.1-1,1.9-1.3c0.7-0.3,1.6-0.5,2.6-0.5c1,0,1.8,0.1,2.5,0.4c0.7,0.3,1.3,0.7,1.8,1.2
			c0.5,0.5,0.8,1.1,1,1.9C118.3,29.2,118.4,30.1,118.4,31z M115.2,31.1c0-0.5,0-1-0.1-1.5c-0.1-0.4-0.2-0.8-0.4-1.2
			c-0.2-0.3-0.5-0.6-0.8-0.8c-0.3-0.2-0.8-0.3-1.3-0.3c-0.5,0-0.9,0.1-1.2,0.3s-0.6,0.4-0.8,0.7s-0.4,0.7-0.5,1.2
			c-0.1,0.5-0.2,1-0.2,1.5c0,0.5,0,1,0.1,1.5c0.1,0.5,0.2,0.8,0.4,1.2c0.2,0.3,0.5,0.6,0.8,0.8c0.3,0.2,0.8,0.3,1.3,0.3
			c0.5,0,0.9-0.1,1.2-0.3c0.3-0.2,0.6-0.4,0.8-0.7c0.2-0.3,0.4-0.7,0.5-1.1C115.2,32.2,115.2,31.7,115.2,31.1z"/>
		<path class="st1" d="M131.1,36.6c0,0.1,0,0.2-0.1,0.2c0,0.1-0.1,0.1-0.2,0.2c-0.1,0-0.2,0.1-0.4,0.1c-0.2,0-0.4,0-0.6,0
			c-0.3,0-0.5,0-0.6,0c-0.2,0-0.3,0-0.4-0.1c-0.1,0-0.2-0.1-0.2-0.2c0-0.1-0.1-0.1-0.1-0.2v-1.2c-0.6,0.6-1.1,1.1-1.8,1.4
			s-1.3,0.5-2,0.5c-0.8,0-1.5-0.2-2.1-0.5c-0.6-0.3-1-0.8-1.4-1.3c-0.4-0.5-0.6-1.2-0.8-1.9s-0.2-1.5-0.2-2.3c0-1,0.1-1.8,0.3-2.6
			c0.2-0.8,0.5-1.4,0.9-2c0.4-0.5,0.9-1,1.5-1.3c0.6-0.3,1.3-0.4,2-0.4c0.6,0,1.2,0.1,1.7,0.4c0.5,0.2,1,0.6,1.5,1.1v-5.9
			c0-0.1,0-0.2,0.1-0.2c0-0.1,0.1-0.1,0.2-0.2c0.1,0,0.3-0.1,0.5-0.1c0.2,0,0.4,0,0.7,0s0.5,0,0.7,0s0.3,0.1,0.5,0.1
			c0.1,0,0.2,0.1,0.2,0.2c0,0.1,0.1,0.1,0.1,0.2V36.6z M128,29.3c-0.4-0.6-0.9-1-1.3-1.3s-0.8-0.4-1.3-0.4c-0.4,0-0.7,0.1-1,0.3
			c-0.3,0.2-0.5,0.5-0.7,0.8c-0.2,0.3-0.3,0.7-0.4,1.1s-0.1,0.8-0.1,1.3c0,0.5,0,0.9,0.1,1.3s0.2,0.8,0.4,1.1
			c0.2,0.3,0.4,0.6,0.7,0.8c0.3,0.2,0.6,0.3,1,0.3c0.2,0,0.4,0,0.6-0.1c0.2-0.1,0.4-0.2,0.6-0.3c0.2-0.1,0.4-0.3,0.6-0.5
			c0.2-0.2,0.5-0.5,0.7-0.8V29.3z"/>
	</g>
	<g>
		<path class="st1" d="M27.1,29.6c4.9,2.6,4.6,6.7-0.8,9.1s-13.8,2.2-18.8-0.4c-4.7-2.5-4.6-6.3,0.2-8.8l3.6,1.7
			c-4.6,1.1-5.6,3.2-2.3,4.7s9.7,1.8,14.3,0.7s5.6-3.2,2.3-4.7c-0.6-0.3-1.3-0.5-2.2-0.7L27.1,29.6z"/>
		<path class="st1" d="M27.6,8.2c-0.8-1.6-2-2.9-3.4-3.9c-3.2-2.2-6.7-2.7-10.5-2c-0.8,0.1-1.5,0.4-2.2,0.7C9.7,3.8,8.1,4.9,6.9,6.4
			C6,7.3,5.2,9.3,5,10.1c-0.1,0.5-0.3,1.1-0.3,1.6C4.5,14,5.1,16.1,6.5,18c1.4,2,2.8,4,4.3,5.9c0.9,1.3,1.9,2.6,2.8,3.9
			c0.7,1,1.5,2.1,2.2,3.1c0.4,0.5,0.9,0.5,1.4,0.3c0.4-0.1,0.6-0.4,0.8-0.8c2.7-3.7,5.3-7.5,8-11.2c0.7-1,1.5-2,2-3.2
			C29,13.4,29,10.8,27.6,8.2 M25.6,15.5c-0.7,1.5-1.7,2.7-2.7,4c-0.2,0.3-0.5,0.7-0.7,1c-0.3,0.2-0.4,0.5-0.6,0.9l0,0l-0.1,0.1l0,0
			l-0.1,0.3l0.1-0.3c0,0.1-0.1,0.1-0.1,0.2c-0.5,0.7-1,1.4-1.4,2.1c-0.3,0.4-0.7,0.7-0.9,1.2c-0.5,1-1.3,1.8-2,2.8
			c-0.4,0.5-0.6,0.3-0.8,0c-0.4-0.6-0.8-1.1-1.2-1.7c-0.5-0.8-1.1-1.5-1.6-2.3c0-0.1,0-0.1-0.1-0.1c0,0,0-0.1-0.1-0.1
			c-0.2-0.4-0.5-0.8-0.8-1.1c-1.1-1.6-2.2-3.2-3.4-4.7c-1-1.3-1.9-2.8-2.1-4.5c0-1.2,0.2-2.5,0.7-3.7C7.8,9.4,7.9,9.3,8,9.1
			C8,9,8,9,8,9c0.5-1,1.3-1.8,2.1-2.6c1.2-0.9,2.6-1.6,4.1-2c2.6-0.6,5.1-0.3,7.4,0.9c0.7,0.4,1.3,0.8,1.9,1.3
			C24,7,25.1,8.4,25.2,8.7C25.3,8.8,27.2,12.2,25.6,15.5"/>
		<path class="st1" d="M23.7,9.2c0.6,0,0.7,0.3,0.4,0.9c-0.5,1-0.8,2-1.3,3c-1.4,3.1-2.7,6.2-4.1,9.4c0,0.1-0.1,0.2-0.1,0.3
			c-0.1,0.3-0.3,0.5-0.6,0.6c-0.3,0-0.4-0.3-0.6-0.5c-0.7-1.4-1.5-2.8-2.2-4.3c-0.3-0.6-0.7-1-1.4-1.3c-1.6-0.6-3.2-1.3-4.8-2
			c-0.3-0.1-0.7-0.2-0.7-0.6c0-0.4,0.4-0.5,0.7-0.6c1.5-0.5,2.9-0.9,4.4-1.5c3.2-1.2,6.6-2.2,9.8-3.3C23.4,9.2,23.6,9.2,23.7,9.2
			 M22.7,10.8c-0.4,0.1-0.6,0.3-0.9,0.5c-0.8,0.7-1.6,1.5-2.5,2.2c-1.2,1-2.4,2.1-3.6,3.1c-0.2,0.2-0.3,0.4-0.1,0.7
			c0.5,0.9,1,1.8,1.5,2.8c0.3,0.5,0.4,1,0.8,1.4C19.6,17.9,21.2,14.4,22.7,10.8"/>
	</g>
	<path class="st1" d="M36.3,11.9c-0.4,0-0.7-0.1-0.9-0.3s-0.3-0.5-0.3-0.9V8.5c0-0.1,0-0.1,0.1-0.1h0.9c0.1,0,0.1,0,0.1,0.1v1.8
		c0,0.2,0,0.3,0.1,0.4c0.1,0.1,0.2,0.1,0.4,0.1h3c-0.2-0.3-0.2-0.6-0.2-1.1c0-0.4,0.1-0.7,0.2-1C39.8,8.4,40,8.2,40.1,8
		c0.2-0.2,0.4-0.3,0.6-0.4c0.2-0.1,0.5-0.1,0.8-0.1s0.6,0,0.8,0.1C42.6,7.8,42.8,8,43,8.1c0.2,0.2,0.3,0.4,0.4,0.7
		c0.1,0.3,0.2,0.6,0.2,1s0,0.7-0.1,1s-0.2,0.5-0.4,0.6c-0.2,0.2-0.4,0.3-0.6,0.3c-0.2,0.1-0.5,0.1-0.8,0.1L36.3,11.9L36.3,11.9z
		 M42.5,9.8c0-0.8-0.3-1.2-0.9-1.2c-0.3,0-0.5,0.1-0.7,0.3s-0.2,0.5-0.2,0.8c0,0.4,0.1,0.7,0.2,0.9c0.2,0.2,0.4,0.3,0.7,0.3
		s0.5-0.1,0.7-0.2C42.4,10.5,42.5,10.2,42.5,9.8L42.5,9.8z M41.1,6.9C41.1,6.9,41,6.8,41.1,6.9l-0.1-1c0-0.1,0-0.1,0.1-0.1H42
		c0.1,0,0.1,0,0.1,0.1v0.8c0,0.1,0,0.1-0.1,0.1L41.1,6.9L41.1,6.9z M45.8,11.8C45.8,11.8,45.8,11.9,45.8,11.8l-1,0.1
		c-0.1,0-0.1,0-0.1-0.1V5.3c0-0.1,0-0.1,0.1-0.1h0.9c0.1,0,0.1,0,0.1,0.1V11.8z M47.5,7.9C47.5,7.9,47.6,7.8,47.5,7.9l1-0.1
		c0.1,0,0.1,0,0.1,0.1v2.4c0,0.2,0.1,0.3,0.2,0.4c0.1,0.1,0.3,0.2,0.6,0.2h0.2c0.1,0,0.2,0,0.3,0.1s0.1,0.2,0.1,0.4s0,0.3-0.1,0.4
		c-0.1,0.1-0.2,0.1-0.3,0.1c-0.2,0-0.4,0-0.6-0.1c-0.2,0-0.3-0.1-0.4-0.3v0.2c0,0.4,0,0.7-0.1,0.9c-0.1,0.3-0.2,0.5-0.3,0.7
		s-0.3,0.3-0.5,0.4c-0.2,0.1-0.5,0.1-0.8,0.1h-0.4c-0.1,0-0.1,0-0.1-0.1v-0.8c0-0.1,0-0.1,0.1-0.1h0.2c0.2,0,0.3,0,0.4-0.1
		c0.1-0.1,0.2-0.2,0.2-0.3s0.1-0.3,0.1-0.5s0-0.4,0-0.6L47.5,7.9L47.5,7.9z M51.6,8.2c0.3-0.1,0.6-0.3,1-0.4s0.8-0.2,1.1-0.2
		c0.4,0,0.8,0.1,1.1,0.2s0.5,0.3,0.7,0.5C55.8,8.5,55.9,8.7,56,9s0.1,0.6,0.1,1c0,0.1,0,0.1,0,0.2c0,0.1,0,0.1,0,0.1
		c0,0.2,0.1,0.3,0.2,0.4c0.1,0.1,0.3,0.2,0.6,0.2h0.2c0.1,0,0.2,0,0.3,0.1s0.1,0.2,0.1,0.4s0,0.3-0.1,0.4c-0.1,0.1-0.2,0.1-0.3,0.1
		c-0.3,0-0.5,0-0.7-0.1s-0.4-0.2-0.5-0.5c-0.1,0.3-0.3,0.4-0.6,0.5s-0.6,0.1-1,0.1h-1.9c-0.1,0-0.2,0-0.3,0s-0.2,0-0.3,0
		s-0.2,0-0.3,0s-0.2,0-0.2-0.1c-0.1,0.1-0.2,0.1-0.3,0.1s-0.3,0-0.4,0h-0.8c-0.1,0-0.2,0-0.3-0.1s-0.1-0.2-0.1-0.4s0-0.3,0.1-0.4
		c0.1-0.1,0.2-0.1,0.3-0.1H50c0.1,0,0.2,0,0.3-0.1s0.1-0.1,0.1-0.2c0-0.1,0-0.2,0.1-0.3c0-0.1,0-0.3,0-0.4v-2c0-0.1,0-0.1,0.1-0.1
		h0.9c0.1,0,0.1,0,0.1,0.1C51.6,7.9,51.6,8.2,51.6,8.2z M53.6,8.6c-0.4,0-0.7,0.1-1.1,0.2c-0.4,0.1-0.7,0.2-0.9,0.4v1.3
		c0,0.1,0,0.2,0,0.2c0,0.1,0,0.1,0,0.2h2.1c0.3,0,0.5,0,0.7,0s0.3,0,0.4-0.1c0.1-0.1,0.2-0.2,0.2-0.3s0-0.3,0-0.6
		c0-0.2,0-0.4-0.1-0.6c0-0.2-0.1-0.3-0.2-0.4c-0.1-0.1-0.2-0.2-0.4-0.3C54.1,8.7,53.9,8.6,53.6,8.6z M57.2,11.9
		c-0.1,0-0.2,0-0.3-0.1c-0.1,0-0.1-0.1-0.1-0.3s0-0.3,0.1-0.4c0.1-0.1,0.2-0.2,0.3-0.2h0.5c0.2,0,0.3,0,0.4-0.1
		c0.1-0.1,0.1-0.2,0.1-0.4V7.9c0-0.1,0-0.1,0.1-0.1h0.9c0.1,0,0.1,0,0.1,0.1v2.7c0,0.4-0.1,0.7-0.3,0.9s-0.5,0.3-0.9,0.3L57.2,11.9
		L57.2,11.9z M58.2,6.9C58.1,6.9,58.1,6.8,58.2,6.9L58.1,6c0-0.1,0-0.1,0.1-0.1h0.9c0.1,0,0.1,0,0.1,0.1v0.8c0,0.1,0,0.1-0.1,0.1
		H58.2z M63,10.9h1c0.2,0,0.3,0,0.4-0.1s0.1-0.2,0.1-0.4v-5c0-0.1,0-0.1,0.1-0.1h0.9c0.1,0,0.1,0,0.1,0.1v5.3c0,0.4-0.1,0.7-0.3,0.9
		c-0.2,0.2-0.5,0.3-0.9,0.3h-4.3c-0.1,0-0.1,0-0.1-0.1V11c0-0.1,0-0.1,0.1-0.1h1.7V6.7c0-0.1,0-0.1,0.1-0.1h0.9c0.1,0,0.1,0,0.1,0.1
		v4.2H63z M67.9,11.8C67.9,11.8,67.9,11.9,67.9,11.8l-1,0.1c-0.1,0-0.1,0-0.1-0.1V5.3c0-0.1,0-0.1,0.1-0.1h0.9c0.1,0,0.1,0,0.1,0.1
		V11.8z"/>
	<path class="st1" d="M72.1,11.9c-0.3,0-0.6,0-0.8-0.1c-0.2-0.1-0.4-0.2-0.6-0.3c-0.2-0.2-0.3-0.4-0.4-0.6c-0.1-0.3-0.1-0.6-0.1-0.9
		c0-0.4,0.1-0.7,0.2-1s0.3-0.5,0.4-0.7C71,8,71.2,7.9,71.5,7.8c0.2-0.1,0.5-0.1,0.8-0.1s0.6,0,0.8,0.1c0.2,0.1,0.5,0.2,0.6,0.4
		c0.2,0.2,0.3,0.4,0.4,0.7s0.1,0.6,0.1,1v2.3c0,0.6-0.2,1.1-0.5,1.3c-0.3,0.3-0.8,0.4-1.3,0.4h-1.3c-0.1,0-0.1,0-0.1-0.1V13
		c0-0.1,0-0.1,0.1-0.1h1.1c0.1,0,0.2,0,0.4,0c0.1,0,0.2-0.1,0.3-0.1c0.1-0.1,0.1-0.2,0.2-0.3c0-0.1,0.1-0.3,0.1-0.5L72.1,11.9
		L72.1,11.9z M72.2,8.6c-0.3,0-0.5,0.1-0.7,0.3s-0.2,0.5-0.2,0.9s0.1,0.7,0.2,0.8s0.4,0.2,0.7,0.2h0.9v-1c0-0.4-0.1-0.7-0.2-0.9
		C72.8,8.7,72.5,8.6,72.2,8.6z"/>
	<path class="st1" d="M77.3,13.8C77.2,13.8,77.2,13.8,77.3,13.8l-0.1-0.9c0-0.1,0-0.1,0.1-0.1h0.2c0.3,0,0.5-0.1,0.6-0.2
		c0.1-0.1,0.2-0.3,0.2-0.6V7.9c0-0.1,0-0.1,0.1-0.1h0.9c0.1,0,0.1,0,0.1,0.1V12c0,1.2-0.6,1.8-1.7,1.8H77.3z M81.3,13.8
		C81.2,13.8,81.2,13.8,81.3,13.8l-0.1-0.9c0-0.1,0-0.1,0.1-0.1h1.1c0.1,0,0.3,0,0.4,0s0.2-0.1,0.3-0.2c0.1-0.1,0.1-0.2,0.2-0.3
		c0-0.1,0.1-0.3,0.1-0.5h-1c-0.3,0-0.6,0-0.8-0.1c-0.2-0.1-0.4-0.2-0.6-0.3c-0.2-0.2-0.3-0.4-0.4-0.6c-0.1-0.3-0.1-0.6-0.1-0.9
		c0-0.4,0.1-0.7,0.2-1s0.3-0.5,0.4-0.7c0.2-0.2,0.4-0.3,0.6-0.4s0.5-0.1,0.8-0.1s0.6,0,0.8,0.1c0.2,0.1,0.5,0.2,0.6,0.4
		c0.2,0.2,0.3,0.4,0.4,0.7s0.1,0.6,0.1,1V11h0.7c0.1,0,0.2,0,0.3,0.1c0.1,0.1,0.1,0.2,0.1,0.4s0,0.3-0.1,0.4
		C85.3,12,85.2,12,85.1,12h-0.7v0.2c0,0.6-0.2,1.1-0.5,1.3c-0.3,0.3-0.8,0.4-1.3,0.4L81.3,13.8L81.3,13.8z M82.4,8.6
		c-0.3,0-0.5,0.1-0.7,0.3s-0.2,0.5-0.2,0.9s0.1,0.7,0.2,0.8s0.4,0.2,0.7,0.2h0.9v-1c0-0.4-0.1-0.7-0.2-0.9C83,8.7,82.8,8.6,82.4,8.6
		z M87.2,8.2c0.3-0.1,0.6-0.3,1-0.4s0.8-0.2,1.1-0.2c0.4,0,0.8,0.1,1.1,0.2c0.3,0.1,0.5,0.3,0.7,0.5s0.3,0.4,0.4,0.7s0.1,0.6,0.1,1
		c0,0.1,0,0.1,0,0.2c0,0.1,0,0.1,0,0.1c0,0.2,0.1,0.3,0.2,0.4c0.1,0.1,0.3,0.2,0.6,0.2h0.2c0.1,0,0.2,0,0.3,0.1
		c0.1,0.1,0.1,0.2,0.1,0.4s0,0.3-0.1,0.4c-0.1,0.1-0.2,0.1-0.3,0.1c-0.3,0-0.5,0-0.7-0.1s-0.4-0.2-0.5-0.5c-0.1,0.3-0.3,0.4-0.6,0.5
		c-0.3,0.1-0.6,0.1-1,0.1h-1.9c-0.1,0-0.2,0-0.3,0c-0.1,0-0.2,0-0.3,0c-0.1,0-0.2,0-0.3,0c-0.1,0-0.2,0-0.2-0.1
		c-0.1,0.1-0.2,0.1-0.3,0.1c-0.1,0-0.3,0-0.4,0h-0.8c-0.1,0-0.2,0-0.3-0.1c-0.1-0.1-0.1-0.2-0.1-0.4s0-0.3,0.1-0.4
		c0.1-0.1,0.2-0.1,0.3-0.1h0.4c0.1,0,0.2,0,0.3-0.1c0.1-0.1,0.1-0.1,0.1-0.2c0-0.1,0-0.2,0.1-0.3c0-0.1,0-0.3,0-0.4v-2
		c0-0.1,0-0.1,0.1-0.1h0.9c0.1,0,0.1,0,0.1,0.1L87.2,8.2L87.2,8.2z M89.2,8.6c-0.4,0-0.7,0.1-1.1,0.2c-0.4,0.1-0.7,0.2-0.9,0.4v1.3
		c0,0.1,0,0.2,0,0.2c0,0.1,0,0.1,0,0.2h2.1c0.3,0,0.5,0,0.7,0s0.3,0,0.4-0.1s0.2-0.2,0.2-0.3s0-0.3,0-0.6c0-0.2,0-0.4-0.1-0.6
		c0-0.2-0.1-0.3-0.2-0.4c-0.1-0.1-0.2-0.2-0.4-0.3C89.7,8.7,89.4,8.6,89.2,8.6z M88.8,6.9C88.7,6.9,88.7,6.8,88.8,6.9L88.7,6
		c0-0.1,0-0.1,0.1-0.1h0.9c0.1,0,0.1,0,0.1,0.1v0.8c0,0.1,0,0.1-0.1,0.1H88.8z M93.1,8.6c-0.1-0.1-0.1-0.1,0-0.1
		c0.2-0.2,0.4-0.4,0.7-0.6c0.3-0.1,0.6-0.2,1-0.2s0.8,0.1,1.1,0.2c0.3,0.1,0.5,0.3,0.7,0.5C96.8,8.6,97,8.9,97,9.2
		c0.1,0.3,0.1,0.6,0.1,0.9v0.1v0.1c0,0.2,0.1,0.3,0.2,0.4c0.1,0.1,0.3,0.1,0.6,0.1h0.2c0.1,0,0.2,0,0.3,0.1c0.1,0.1,0.1,0.2,0.1,0.4
		s0,0.3-0.1,0.4c-0.1,0.1-0.2,0.1-0.3,0.1c-0.3,0-0.5,0-0.7-0.1s-0.4-0.2-0.5-0.5c-0.1,0.2-0.3,0.4-0.5,0.5s-0.5,0.1-0.8,0.1h-3
		c-0.1,0-0.2,0-0.3-0.1c-0.1-0.1-0.1-0.2-0.1-0.4s0-0.3,0.1-0.4c0.1-0.1,0.2-0.1,0.3-0.1h2.6c0.2,0,0.3,0,0.4,0s0.2-0.1,0.2-0.1
		c0.1-0.1,0.1-0.1,0.1-0.3c0-0.1,0-0.2,0-0.4s0-0.4-0.1-0.6s0-0.2-0.1-0.4c-0.1-0.1-0.2-0.2-0.4-0.3c-0.1-0.1-0.3-0.1-0.5-0.1
		s-0.4,0-0.6,0.1S93.9,8.9,93.7,9h-0.1L93.1,8.6L93.1,8.6z M98.1,11.9c-0.1,0-0.2,0-0.3-0.1c-0.1-0.1-0.1-0.2-0.1-0.4s0-0.3,0.1-0.4
		c0.1-0.1,0.2-0.1,0.3-0.1h0.5c0.2,0,0.3,0,0.4-0.1s0.1-0.2,0.1-0.4v-5c0-0.1,0-0.1,0.1-0.1h0.9c0.1,0,0.1,0,0.1,0.1v5.3
		c0,0.4-0.1,0.7-0.3,0.9c-0.2,0.2-0.5,0.3-0.9,0.3H98.1z M98.8,11.9c-0.1,0-0.2,0-0.3-0.1c-0.1-0.1-0.1-0.2-0.1-0.4s0-0.3,0.1-0.4
		c0.1-0.1,0.2-0.1,0.3-0.1h2.4c0.2,0,0.3,0,0.4-0.1s0.1-0.2,0.1-0.4v-5c0-0.1,0-0.1,0.1-0.1h0.9c0.1,0,0.1,0,0.1,0.1v5.3
		c0,0.4-0.1,0.7-0.3,0.9c-0.2,0.2-0.5,0.3-0.9,0.3H98.8z M109.7,10.2c0,0.3,0,0.6-0.1,0.8s-0.1,0.4-0.3,0.5
		c-0.1,0.1-0.3,0.2-0.4,0.3c-0.2,0.1-0.4,0.1-0.6,0.1H106c-0.1,0-0.1,0-0.1-0.1V11c0-0.1,0-0.1,0.1-0.1h1.8c0.2,0,0.3,0,0.4,0
		s0.2-0.1,0.2-0.1c0.1-0.1,0.1-0.1,0.1-0.2c0-0.1,0-0.2,0-0.4V9.5c0-0.6-0.3-0.9-1-0.9h-1.2c-0.1,0-0.1,0-0.1-0.1V7.7
		c0-0.1,0-0.1,0.1-0.1h1.6c0.5,0,0.9,0.1,1.2,0.4c0.3,0.3,0.5,0.7,0.5,1.3L109.7,10.2L109.7,10.2z M111.6,13.8
		C111.5,13.8,111.5,13.8,111.6,13.8l-0.1-0.9c0-0.1,0-0.1,0.1-0.1h1.1c0.1,0,0.3,0,0.4,0s0.2-0.1,0.3-0.2c0.1-0.1,0.1-0.2,0.2-0.3
		c0-0.1,0.1-0.3,0.1-0.5h-1c-0.3,0-0.6,0-0.8-0.1c-0.2-0.1-0.4-0.2-0.6-0.3c-0.2-0.2-0.3-0.4-0.4-0.6c-0.1-0.3-0.1-0.6-0.1-0.9
		c0-0.4,0.1-0.7,0.2-1s0.3-0.5,0.4-0.7c0.2-0.2,0.4-0.3,0.6-0.4s0.5-0.1,0.8-0.1s0.6,0,0.8,0.1c0.2,0.1,0.5,0.2,0.6,0.4
		c0.2,0.2,0.3,0.4,0.4,0.7s0.1,0.6,0.1,1V11h0.7c0.1,0,0.2,0,0.3,0.1c0.1,0.1,0.1,0.2,0.1,0.4s0,0.3-0.1,0.4
		c-0.1,0.1-0.2,0.1-0.3,0.1h-0.7v0.2c0,0.6-0.2,1.1-0.5,1.3c-0.3,0.3-0.8,0.4-1.3,0.4L111.6,13.8L111.6,13.8z M112.7,8.6
		c-0.3,0-0.5,0.1-0.7,0.3s-0.2,0.5-0.2,0.9s0.1,0.7,0.2,0.8s0.4,0.2,0.7,0.2h0.9v-1c0-0.4-0.1-0.7-0.2-0.9
		C113.2,8.7,113,8.6,112.7,8.6z M115.4,11.9c-0.1,0-0.2,0-0.3-0.1c-0.1-0.1-0.1-0.2-0.1-0.4s0-0.3,0.1-0.4c0.1-0.1,0.2-0.1,0.3-0.1
		h2.6c0.2,0,0.3,0,0.4,0s0.2-0.1,0.2-0.1c0.1-0.1,0.1-0.1,0.1-0.3c0-0.1,0-0.2,0-0.4s0-0.4-0.1-0.6c0-0.2-0.1-0.3-0.2-0.5
		c-0.1-0.1-0.2-0.2-0.4-0.3c-0.1-0.1-0.3-0.1-0.5-0.1s-0.4,0-0.6,0.1s-0.3,0.2-0.5,0.3h-0.1l-0.5-0.5c-0.1-0.1-0.1-0.1,0-0.1
		c0.2-0.2,0.4-0.4,0.7-0.6c0.3-0.1,0.6-0.2,1-0.2s0.8,0.1,1.1,0.2c0.3,0.1,0.5,0.3,0.7,0.5c0.2,0.2,0.3,0.5,0.4,0.8s0.1,0.6,0.1,0.9
		c0,0.4,0,0.6-0.1,0.9c-0.1,0.2-0.2,0.4-0.3,0.5c-0.1,0.1-0.3,0.2-0.5,0.3s-0.4,0.1-0.7,0.1h-2.8V11.9z M117.3,13.7
		C117.2,13.7,117.2,13.7,117.3,13.7l-0.1-0.9c0-0.1,0-0.1,0.1-0.1h0.9c0.1,0,0.1,0,0.1,0.1v0.8c0,0.1,0,0.1-0.1,0.1
		C118.2,13.7,117.3,13.7,117.3,13.7z M121.7,13.8C121.7,13.8,121.6,13.8,121.7,13.8l-0.1-0.9c0-0.1,0-0.1,0.1-0.1h1.1
		c0.1,0,0.3,0,0.4,0s0.2-0.1,0.3-0.2c0.1-0.1,0.1-0.2,0.2-0.3c0-0.1,0.1-0.3,0.1-0.5h-1c-0.3,0-0.6,0-0.8-0.1
		c-0.2-0.1-0.4-0.2-0.6-0.3c-0.2-0.2-0.3-0.4-0.4-0.6c-0.1-0.3-0.1-0.6-0.1-0.9c0-0.4,0.1-0.7,0.2-1s0.3-0.5,0.4-0.7
		c0.2-0.2,0.4-0.3,0.6-0.4s0.5-0.1,0.8-0.1s0.6,0,0.8,0.1c0.2,0.1,0.5,0.2,0.6,0.4c0.2,0.2,0.3,0.4,0.4,0.7s0.1,0.6,0.1,1V11h0.7
		c0.1,0,0.2,0,0.3,0.1c0.1,0.1,0.1,0.2,0.1,0.4s0,0.3-0.1,0.4c-0.1,0.1-0.2,0.1-0.3,0.1h-0.7v0.2c0,0.6-0.2,1.1-0.5,1.3
		c-0.3,0.3-0.8,0.4-1.3,0.4L121.7,13.8L121.7,13.8z M122.9,8.6c-0.3,0-0.5,0.1-0.7,0.3S122,9.4,122,9.8s0.1,0.7,0.2,0.8
		s0.4,0.2,0.7,0.2h0.9v-1c0-0.4-0.1-0.7-0.2-0.9C123.4,8.7,123.2,8.6,122.9,8.6z M128.5,11.9c-0.3,0-0.6,0-0.9-0.1s-0.5-0.2-0.7-0.4
		c-0.1,0.1-0.1,0.2-0.2,0.3s-0.2,0.1-0.3,0.2c-0.1,0-0.2,0.1-0.3,0.1c-0.1,0-0.2,0-0.3,0h-0.3c-0.1,0-0.2,0-0.3-0.1
		c-0.1-0.1-0.1-0.2-0.1-0.4s0-0.3,0.1-0.4c0.1-0.1,0.2-0.1,0.3-0.1h0.4c0.1,0,0.1,0,0.2,0s0.1-0.1,0.2-0.1c0.1-0.1,0.1-0.2,0.1-0.3
		s0.1-0.3,0.1-0.4c0-0.1,0-0.1,0-0.1V10c0-0.4,0.1-0.7,0.2-1s0.2-0.5,0.4-0.6c0.2-0.2,0.4-0.3,0.6-0.4s0.5-0.1,0.8-0.1
		s0.6,0,0.8,0.1s0.5,0.2,0.6,0.4c0.2,0.2,0.3,0.4,0.4,0.7c0.1,0.3,0.2,0.6,0.2,1s0,0.7-0.1,1s-0.2,0.5-0.4,0.7s-0.4,0.3-0.6,0.4
		C129.1,11.9,128.8,11.9,128.5,11.9z M129.4,9.8c0-0.8-0.3-1.2-0.9-1.2c-0.3,0-0.5,0.1-0.7,0.3c-0.1,0.2-0.2,0.5-0.2,0.9
		s0.1,0.7,0.2,0.9s0.4,0.3,0.7,0.3s0.5-0.1,0.7-0.3C129.3,10.5,129.4,10.2,129.4,9.8L129.4,9.8z"/>
	<rect x="35.2" y="16.3" class="st1" width="96.2" height="2.3"/>
</g>
</svg>
